<?xml version="1.0" standalone="no"?>
<!DOCTYPE svg PUBLIC "-//W3C//DTD SVG 20010904//EN"
 "http://www.w3.org/TR/2001/REC-SVG-20010904/DTD/svg10.dtd">
<svg version="1.0" xmlns="http://www.w3.org/2000/svg"
 width="402.000000pt" height="403.000000pt" viewBox="0 0 402.000000 403.000000"
 preserveAspectRatio="xMidYMid meet">

<g transform="translate(0.000000,403.000000) scale(0.100000,-0.100000)"
fill="#000000" stroke="none">
<path d="M0 2015 l0 -2015 2010 0 2010 0 0 2015 0 2015 -2010 0 -2010 0 0
-2015z m2836 1218 c-11 -63 -64 -160 -108 -197 -22 -19 -81 -53 -132 -74 -50
-22 -208 -91 -351 -153 -143 -61 -272 -121 -287 -133 -15 -12 -39 -43 -53 -70
-24 -48 -25 -56 -25 -238 0 -103 2 -188 4 -188 4 0 120 48 191 80 110 49 138
60 141 57 2 -1 -31 -51 -72 -110 -79 -112 -92 -123 -206 -168 -29 -11 -66 -27
-83 -34 -99 -46 -221 -95 -233 -95 -23 0 -52 31 -52 55 0 29 22 46 103 80 79
32 97 47 97 80 0 36 -28 58 -64 52 -17 -3 -122 -44 -234 -92 -111 -47 -213
-85 -225 -83 -12 2 -28 15 -37 30 -14 26 -14 29 10 51 14 13 131 68 260 122
317 132 310 128 310 168 0 18 -5 38 -12 45 -16 16 -58 15 -101 -3 -52 -22 -70
-19 -90 14 -16 27 -16 30 1 50 9 12 64 42 121 66 57 25 110 50 118 56 31 27 5
99 -36 99 -10 0 -102 -36 -205 -80 -103 -44 -194 -80 -203 -80 -22 0 -53 29
-53 50 0 27 31 48 141 96 57 25 113 49 124 54 11 5 99 43 195 84 96 41 249
106 340 146 91 39 257 111 370 160 113 49 230 100 260 114 77 35 84 34 76 -11z
m-1338 -815 c16 -16 15 -63 0 -76 -7 -5 -48 -24 -90 -42 -89 -37 -124 -35
-134 7 -10 39 5 54 87 90 79 35 118 40 137 21z m20 -474 c43 -30 23 -76 -45
-103 -39 -16 -70 -2 -79 34 -7 30 9 53 51 71 39 17 46 17 73 -2z m-180 -80
c27 -19 28 -49 2 -71 -11 -10 -66 -36 -122 -59 -109 -45 -140 -45 -152 0 -9
36 17 58 120 103 111 48 121 49 152 27z m1660 -547 c12 -11 22 -26 22 -34 0
-18 -56 -17 -64 2 -3 8 -17 15 -31 15 -22 0 -26 -4 -23 -22 2 -16 15 -27 45
-38 70 -26 94 -59 77 -105 -10 -24 -58 -45 -104 -45 -33 0 -48 6 -73 32 l-32
31 28 10 c23 7 33 5 52 -13 28 -26 59 -23 63 7 3 17 -6 24 -48 38 -90 30 -105
100 -30 138 41 20 84 15 118 -16z m-823 -68 c10 -53 21 -85 25 -77 5 7 16 48
25 91 l17 77 49 0 49 0 0 -125 0 -125 -30 0 -29 0 -3 83 -3 82 -12 -42 c-7
-24 -18 -61 -23 -83 -10 -36 -14 -40 -43 -40 -33 0 -33 0 -54 83 l-21 82 -1
-82 -1 -83 -35 0 -35 0 0 118 c0 65 3 122 7 125 3 4 27 7 53 7 l46 0 19 -91z
m424 -25 c23 -63 41 -120 41 -125 0 -5 -13 -9 -29 -9 -25 0 -31 6 -41 35 -11
32 -15 35 -51 35 -35 0 -40 -3 -53 -35 -12 -29 -20 -35 -45 -35 -20 0 -29 4
-26 13 2 6 20 57 40 112 20 55 38 106 40 113 3 7 21 12 44 12 l39 0 41 -116z
m161 -9 l0 -125 -30 0 -30 0 0 125 0 125 30 0 30 0 0 -125z m-2331 -296 c13
-39 14 -42 1 -34 -5 3 -10 15 -10 26 0 10 -4 19 -10 19 -5 0 -10 -5 -10 -12 0
-6 -2 -9 -5 -6 -7 7 5 38 15 38 4 0 13 -14 19 -31z m328 -46 c-2 -16 -4 -3 -4
27 0 30 2 43 4 28 2 -16 2 -40 0 -55z m156 70 c-7 -2 -13 -12 -13 -20 0 -9 -3
-14 -6 -10 -10 10 4 37 18 36 10 0 10 -2 1 -6z m57 -14 c6 -11 9 -25 6 -32 -2
-7 -5 -5 -5 5 -1 9 -8 24 -17 32 -8 9 -11 16 -5 16 6 0 15 -9 21 -21z m122
-26 c-7 -65 -12 -67 -12 -5 0 29 4 52 9 52 5 0 6 -21 3 -47z m86 -5 l-1 -53
-7 45 c-4 25 -8 39 -8 31 -1 -8 -4 -12 -7 -9 -8 7 5 38 16 38 5 0 8 -24 7 -52z
m152 41 c0 -5 -4 -8 -9 -5 -5 3 -12 -6 -15 -20 -4 -15 -9 -24 -12 -22 -8 8 15
58 26 58 5 0 10 -5 10 -11z m198 -14 c-3 -3 -9 2 -12 12 -6 14 -5 15 5 6 7 -7
10 -15 7 -18z m294 13 c-5 -7 -12 -24 -15 -38 l-4 -25 -2 26 c0 14 4 30 11 37
16 16 23 15 10 0z m356 -13 c-3 -3 -9 2 -12 12 -6 14 -5 15 5 6 7 -7 10 -15 7
-18z m182 5 c16 -29 2 -69 -26 -76 -25 -6 -54 10 -54 30 0 6 5 3 11 -6 26 -45
84 5 60 51 -7 11 -9 21 -7 21 3 0 10 -9 16 -20z m123 -12 c-8 -46 -13 -48 -13
-5 0 21 4 37 10 37 5 0 7 -14 3 -32z m86 -21 l-2 -42 -6 40 c-6 36 -7 38 -15
17 -4 -13 -10 -22 -12 -19 -3 2 0 16 6 31 14 38 30 23 29 -27z m114 9 c-3 -42
-2 -45 24 -49 26 -4 26 -4 -4 -6 l-33 -1 0 50 c0 28 4 50 8 50 5 0 7 -20 5
-44z m337 29 c-7 -8 -10 -28 -8 -44 2 -17 1 -28 -4 -25 -12 8 -10 58 4 72 17
17 23 15 8 -3z m330 -11 c12 -30 13 -50 3 -40 -8 8 -9 13 -12 42 0 8 -5 12
-11 9 -5 -3 -10 -1 -10 4 0 21 21 11 30 -15z m158 -67 c24 -4 24 -4 -5 -6
l-33 -1 2 53 2 52 3 -47 c4 -42 7 -47 31 -51z m-2891 31 c-2 -13 -4 -5 -4 17
-1 22 1 32 4 23 2 -10 2 -28 0 -40z m848 15 c0 -31 4 -38 25 -44 21 -6 22 -7
5 -8 -28 -1 -45 17 -45 49 0 21 7 40 14 40 1 0 1 -17 1 -37z m642 15 c-3 -8
-6 -5 -6 6 -1 11 2 17 5 13 3 -3 4 -12 1 -19z m175 -10 c-8 -8 -9 -4 -5 13 4
13 8 18 11 10 2 -7 -1 -18 -6 -23z m-583 -21 c1 -5 -3 -5 -9 -2 -5 3 -10 16
-9 28 0 21 1 21 9 2 5 -11 9 -24 9 -28z m188 6 c-3 -10 -5 -4 -5 12 0 17 2 24
5 18 2 -7 2 -21 0 -30z m960 -15 c-2 -13 -4 -5 -4 17 -1 22 1 32 4 23 2 -10 2
-28 0 -40z m50 15 c1 -32 -1 -34 -8 -15 -7 18 -3 52 5 52 1 0 2 -17 3 -37z
m-1537 -42 c-1 -13 -29 45 -29 59 0 8 6 0 14 -19 8 -18 15 -36 15 -40z m1950
32 c-11 -17 -11 -17 -6 0 3 10 6 24 7 30 0 9 2 9 5 0 3 -7 0 -20 -6 -30z
m-2910 13 c0 -3 -4 -8 -10 -11 -5 -3 -10 -1 -10 4 0 6 5 11 10 11 6 0 10 -2
10 -4z m1260 0 c0 -3 -4 -8 -10 -11 -5 -3 -10 -1 -10 4 0 6 5 11 10 11 6 0 10
-2 10 -4z m-756 -22 c3 -8 2 -12 -4 -9 -6 3 -10 10 -10 16 0 14 7 11 14 -7z
m232 -22 c-4 -3 -11 0 -16 8 -15 24 -11 33 6 15 9 -9 13 -19 10 -23z m1002 8
c10 0 24 6 32 13 12 10 12 9 1 -5 -21 -29 -72 -16 -71 17 0 5 5 2 11 -7 5 -10
18 -18 27 -18z m383 16 c5 3 9 1 9 -5 0 -5 -4 -13 -10 -16 -5 -3 -10 -4 -10
-1 0 2 -2 10 -3 18 -2 7 -2 10 0 5 3 -4 9 -5 14 -1z m666 -8 c-3 -8 -6 -5 -6
6 -1 11 2 17 5 13 3 -3 4 -12 1 -19z m-1312 -8 c-3 -5 -16 -10 -28 -9 -20 1
-20 2 3 9 14 4 26 8 28 9 2 1 0 -3 -3 -9z m-1282 -7 c-7 -2 -19 -2 -25 0 -7 3
-2 5 12 5 14 0 19 -2 13 -5z m354 1 c-3 -3 -12 -4 -19 -1 -8 3 -5 6 6 6 11 1
17 -2 13 -5z m2110 0 c-3 -3 -12 -4 -19 -1 -8 3 -5 6 6 6 11 1 17 -2 13 -5z"/>
<path d="M2504 1246 c-7 -42 -4 -49 19 -40 12 4 15 13 11 33 -11 43 -22 46
-30 7z"/>
</g>
</svg>
